<svg width="36" height="36" viewBox="0 0 36 36" fill="none" xmlns="http://www.w3.org/2000/svg">
<path d="M16.4087 18L7.07797 8.67152C6.97337 8.56692 6.8904 8.44274 6.83379 8.30608C6.77718 8.16942 6.74805 8.02294 6.74805 7.87502C6.74805 7.72709 6.77718 7.58062 6.83379 7.44395C6.8904 7.30729 6.97337 7.18311 7.07797 7.07852C7.18257 6.97392 7.30674 6.89095 7.44341 6.83434C7.58007 6.77773 7.72654 6.7486 7.87447 6.7486C8.02239 6.7486 8.16887 6.77773 8.30553 6.83434C8.44219 6.89095 8.56637 6.97392 8.67097 7.07852L17.9995 16.4093L27.328 7.07852C27.5392 6.86727 27.8257 6.7486 28.1245 6.7486C28.4232 6.7486 28.7097 6.86727 28.921 7.07852C29.1322 7.28976 29.2509 7.57627 29.2509 7.87502C29.2509 8.17376 29.1322 8.46027 28.921 8.67152L19.5902 18L28.921 27.3285C29.1322 27.5398 29.2509 27.8263 29.2509 28.125C29.2509 28.4238 29.1322 28.7103 28.921 28.9215C28.7097 29.1328 28.4232 29.2514 28.1245 29.2514C27.8257 29.2514 27.5392 29.1328 27.328 28.9215L17.9995 19.5908L8.67097 28.9215C8.45972 29.1328 8.17321 29.2514 7.87447 29.2514C7.57572 29.2514 7.28921 29.1328 7.07797 28.9215C6.86672 28.7103 6.74805 28.4238 6.74805 28.125C6.74805 27.8263 6.86672 27.5398 7.07797 27.3285L16.4087 18Z" fill="currentColor"/>
</svg>
