<svg width="40" height="41" viewBox="0 0 40 41" fill="none" xmlns="http://www.w3.org/2000/svg">
<g clip-path="url(#clip0_2448_1152)">
<path d="M33.3333 30.4019C33.7581 30.4024 34.1667 30.5651 34.4756 30.8567C34.7845 31.1483 34.9704 31.5468 34.9953 31.9709C35.0202 32.395 34.8822 32.8126 34.6096 33.1383C34.3369 33.4641 33.9502 33.6734 33.5283 33.7236L33.3333 33.7353H6.66667C6.24187 33.7348 5.83328 33.5721 5.52439 33.2805C5.21549 32.9889 5.02961 32.5903 5.00471 32.1663C4.97982 31.7422 5.11779 31.3246 5.39044 30.9989C5.66309 30.6731 6.04984 30.4638 6.47167 30.4136L6.66667 30.4019H33.3333ZM33.3333 18.7353C33.7754 18.7353 34.1993 18.9108 34.5118 19.2234C34.8244 19.536 35 19.9599 35 20.4019C35 20.8439 34.8244 21.2679 34.5118 21.5804C34.1993 21.893 33.7754 22.0686 33.3333 22.0686H6.66667C6.22464 22.0686 5.80072 21.893 5.48816 21.5804C5.17559 21.2679 5 20.8439 5 20.4019C5 19.9599 5.17559 19.536 5.48816 19.2234C5.80072 18.9108 6.22464 18.7353 6.66667 18.7353H33.3333ZM33.3333 7.06859C33.7754 7.06859 34.1993 7.24418 34.5118 7.55674C34.8244 7.8693 35 8.29323 35 8.73525C35 9.17728 34.8244 9.60121 34.5118 9.91377C34.1993 10.2263 33.7754 10.4019 33.3333 10.4019H6.66667C6.22464 10.4019 5.80072 10.2263 5.48816 9.91377C5.17559 9.60121 5 9.17728 5 8.73525C5 8.29323 5.17559 7.8693 5.48816 7.55674C5.80072 7.24418 6.22464 7.06859 6.66667 7.06859H33.3333Z" fill="currentColor"/>
</g>
<defs>
<clipPath id="clip0_2448_1152">
<rect width="40" height="40" fill="currentColor" transform="translate(0 0.401917)"/>
</clipPath>
</defs>
</svg>
