<svg width="23" height="23" viewBox="0 0 23 23" fill="none" xmlns="http://www.w3.org/2000/svg">
<path d="M19.7165 12.4918C19.5861 12.3859 19.4282 12.3182 19.2606 12.2963C19.093 12.2743 18.9224 12.299 18.7684 12.3676C17.8137 12.7967 16.7756 13.0176 15.7256 13.015C13.7833 13.0127 11.9207 12.2563 10.544 10.9106C9.16718 9.56495 8.38787 7.73923 8.37596 5.83152C8.38007 5.23364 8.45584 4.63831 8.60169 4.05782C8.63263 3.9031 8.62103 3.74307 8.56806 3.59423C8.51509 3.44538 8.42267 3.31309 8.30033 3.211C8.17799 3.1089 8.03015 3.04069 7.87204 3.01339C7.71393 2.98609 7.55127 3.00069 7.40082 3.05568C5.98535 3.68083 4.75491 4.64914 3.82508 5.86964C2.89526 7.09014 2.29657 8.52278 2.08526 10.033C1.87395 11.5431 2.05696 13.0813 2.61709 14.5029C3.17722 15.9246 4.09609 17.183 5.28738 18.16C6.47867 19.1371 7.90326 19.8006 9.42734 20.0883C10.9514 20.3761 12.525 20.2786 14.0001 19.8049C15.4753 19.3313 16.8037 18.4971 17.8605 17.3807C18.9173 16.2644 19.6678 14.9025 20.0415 13.423C20.087 13.2536 20.0805 13.0747 20.0226 12.909C19.9648 12.7433 19.8582 12.5981 19.7165 12.4918ZM11.1389 18.4248C9.62356 18.4143 8.14861 17.944 6.91595 17.0783C5.68329 16.2126 4.75319 14.9939 4.25299 13.5889C3.7528 12.1839 3.70696 10.6615 4.12176 9.22993C4.53656 7.7984 5.39172 6.52779 6.57014 5.59207V5.83152C6.57253 8.2158 7.53789 10.5018 9.25436 12.1877C10.9708 13.8736 13.2982 14.8218 15.7256 14.8242C16.363 14.8265 16.9987 14.7611 17.6217 14.6291C16.9986 15.7869 16.0655 16.7556 14.9231 17.4308C13.7806 18.1059 12.4722 18.4619 11.1389 18.4603V18.4248Z" fill="currentColor"/>
</svg>
