<svg width="23" height="23" viewBox="0 0 23 23" fill="none" xmlns="http://www.w3.org/2000/svg">
<path d="M11 16.5C9.80653 16.5 8.66193 16.0259 7.81802 15.182C6.97411 14.3381 6.5 13.1935 6.5 12C6.5 10.8065 6.97411 9.66193 7.81802 8.81802C8.66193 7.97411 9.80653 7.5 11 7.5C12.1935 7.5 13.3381 7.97411 14.182 8.81802C15.0259 9.66193 15.5 10.8065 15.5 12C15.5 13.1935 15.0259 14.3381 14.182 15.182C13.3381 16.0259 12.1935 16.5 11 16.5ZM11 14.8125C11.7459 14.8125 12.4613 14.5162 12.9887 13.9887C13.5162 13.4613 13.8125 12.7459 13.8125 12C13.8125 11.2541 13.5162 10.5387 12.9887 10.0113C12.4613 9.48382 11.7459 9.1875 11 9.1875C10.2541 9.1875 9.53871 9.48382 9.01126 10.0113C8.48382 10.5387 8.1875 11.2541 8.1875 12C8.1875 12.7459 8.48382 13.4613 9.01126 13.9887C9.53871 14.5162 10.2541 14.8125 11 14.8125ZM17.3641 5.63587C17.4425 5.71423 17.5047 5.80727 17.5472 5.90967C17.5896 6.01208 17.6114 6.12184 17.6114 6.23269C17.6114 6.34354 17.5896 6.4533 17.5472 6.5557C17.5047 6.65811 17.4425 6.75114 17.3641 6.8295L16.1705 8.022C16.0674 8.13307 15.9362 8.21426 15.7908 8.25702C15.6454 8.29979 15.4911 8.30255 15.3443 8.265C15.1975 8.22746 15.0635 8.151 14.9564 8.04369C14.8494 7.93638 14.7733 7.80219 14.7361 7.65525C14.6987 7.50857 14.7013 7.35451 14.7439 7.20923C14.7864 7.06394 14.8673 6.93278 14.978 6.8295L16.1705 5.637C16.3287 5.47899 16.5432 5.39024 16.7668 5.39024C16.9903 5.39024 17.2048 5.47899 17.363 5.637L17.3641 5.63587ZM7.022 15.978C7.18001 16.1362 7.26876 16.3507 7.26876 16.5743C7.26876 16.7978 7.18001 17.0123 7.022 17.1705L5.8295 18.3641C5.7517 18.4447 5.65863 18.5091 5.55571 18.5533C5.45279 18.5976 5.34209 18.6209 5.23005 18.622C5.11802 18.623 5.00691 18.6017 4.9032 18.5593C4.79948 18.5169 4.70525 18.4543 4.62599 18.3751C4.54673 18.296 4.48403 18.2018 4.44156 18.0981C4.39909 17.9944 4.37769 17.8833 4.37861 17.7713C4.37953 17.6593 4.40275 17.5486 4.44692 17.4456C4.49109 17.3426 4.55533 17.2495 4.63587 17.1716L5.82838 15.978C5.90673 15.8996 5.99977 15.8374 6.10217 15.795C6.20458 15.7525 6.31434 15.7307 6.42519 15.7307C6.53604 15.7307 6.6458 15.7525 6.7482 15.795C6.85061 15.8374 6.94364 15.8996 7.022 15.978ZM11 3C11.2238 3 11.4384 3.08889 11.5966 3.24713C11.7549 3.40536 11.8438 3.61997 11.8438 3.84375V5.53125C11.8438 5.75503 11.7549 5.96964 11.5966 6.12787C11.4384 6.28611 11.2238 6.375 11 6.375C10.7762 6.375 10.5616 6.28611 10.4034 6.12787C10.2451 5.96964 10.1562 5.75503 10.1562 5.53125V3.84375C10.1562 3.61997 10.2451 3.40536 10.4034 3.24713C10.5616 3.08889 10.7762 3 11 3ZM5.375 12C5.375 12.2238 5.28611 12.4384 5.12787 12.5966C4.96964 12.7549 4.75503 12.8438 4.53125 12.8438H2.84375C2.61997 12.8438 2.40536 12.7549 2.24713 12.5966C2.08889 12.4384 2 12.2238 2 12C2 11.7762 2.08889 11.5616 2.24713 11.4034C2.40536 11.2451 2.61997 11.1562 2.84375 11.1562H4.53125C4.75503 11.1562 4.96964 11.2451 5.12787 11.4034C5.28611 11.5616 5.375 11.7762 5.375 12ZM20 12C20 12.2238 19.9111 12.4384 19.7529 12.5966C19.5946 12.7549 19.38 12.8438 19.1562 12.8438H17.4688C17.245 12.8438 17.0304 12.7549 16.8721 12.5966C16.7139 12.4384 16.625 12.2238 16.625 12C16.625 11.7762 16.7139 11.5616 16.8721 11.4034C17.0304 11.2451 17.245 11.1562 17.4688 11.1562H19.1562C19.38 11.1562 19.5946 11.2451 19.7529 11.4034C19.9111 11.5616 20 11.7762 20 12ZM11 17.625C11.2238 17.625 11.4384 17.7139 11.5966 17.8721C11.7549 18.0304 11.8438 18.245 11.8438 18.4688V20.1562C11.8438 20.38 11.7549 20.5946 11.5966 20.7529C11.4384 20.9111 11.2238 21 11 21C10.7762 21 10.5616 20.9111 10.4034 20.7529C10.2451 20.5946 10.1562 20.38 10.1562 20.1562V18.4688C10.1562 18.245 10.2451 18.0304 10.4034 17.8721C10.5616 17.7139 10.7762 17.625 11 17.625ZM14.978 15.978C15.1362 15.82 15.3507 15.7312 15.5743 15.7312C15.7978 15.7312 16.0123 15.82 16.1705 15.978L17.3641 17.1705C17.5179 17.3296 17.603 17.5427 17.6012 17.7639C17.5994 17.9851 17.5108 18.1968 17.3544 18.3533C17.198 18.5098 16.9865 18.5986 16.7652 18.6007C16.544 18.6027 16.3308 18.5177 16.1716 18.3641L14.978 17.1716C14.8996 17.0933 14.8374 17.0002 14.795 16.8978C14.7525 16.7954 14.7307 16.6857 14.7307 16.5748C14.7307 16.464 14.7525 16.3542 14.795 16.2518C14.8374 16.1494 14.8996 16.0564 14.978 15.978ZM4.63587 5.63587C4.71423 5.55747 4.80727 5.49527 4.90967 5.45283C5.01208 5.4104 5.12184 5.38856 5.23269 5.38856C5.34354 5.38856 5.4533 5.4104 5.5557 5.45283C5.65811 5.49527 5.75114 5.55747 5.8295 5.63587L7.022 6.8295C7.17122 6.98941 7.25252 7.20103 7.24874 7.41972C7.24496 7.63841 7.15641 7.84709 7.00175 8.00175C6.84709 8.15641 6.63841 8.24496 6.41972 8.24874C6.20103 8.25252 5.98941 8.17122 5.8295 8.022L4.637 6.8295C4.47899 6.6713 4.39024 6.45684 4.39024 6.23325C4.39024 6.00966 4.47899 5.7952 4.637 5.637L4.63587 5.63587Z" fill="currentColor"/>
</svg>
