<svg width="70" height="70" viewBox="0 0 70 70" fill="none" xmlns="http://www.w3.org/2000/svg">
<g clip-path="url(#clip0_2448_471)">
<path d="M1.48258 34.5811C1.48095 40.4624 3.0177 46.2052 5.93979 51.2669L1.20312 68.5612L18.9017 63.9206C23.7969 66.5855 29.2816 67.9819 34.8552 67.9822H34.8699C53.2693 67.9822 68.2468 53.0101 68.2547 34.6074C68.2582 25.69 64.7886 17.3047 58.4848 10.996C52.1821 4.68784 43.7998 1.21199 34.8685 1.20792C16.4669 1.20792 1.49045 16.1792 1.48285 34.5811" fill="url(#paint0_linear_2448_471)"/>
<path d="M0.29031 34.5702C0.288411 40.6632 1.88023 46.6113 4.90651 51.8543L0 69.7686L18.3332 64.9616C23.3846 67.7158 29.072 69.1679 34.8592 69.17H34.8741C53.9336 69.17 69.4492 53.6593 69.4574 34.5979C69.4606 25.3601 65.8662 16.6733 59.3372 10.1386C52.8074 3.60473 44.1252 0.00379845 34.8741 0C15.8113 0 0.297907 15.5085 0.29031 34.5702ZM11.2084 50.9513L10.5239 49.8647C7.64628 45.2892 6.12744 40.0017 6.12961 34.5724C6.13558 18.7288 19.0297 5.83876 34.885 5.83876C42.5633 5.84202 49.7792 8.83519 55.2067 14.2659C60.6338 19.6971 63.6202 26.9169 63.6183 34.5957C63.6113 50.4393 50.7169 63.331 34.8741 63.331H34.8627C29.7041 63.3283 24.6449 61.9429 20.2327 59.325L19.1827 58.7023L8.30341 61.5547L11.2084 50.9513Z" fill="url(#paint1_linear_2448_471)"/>
<path d="M26.2299 20.1177C25.5825 18.6789 24.9012 18.6498 24.2856 18.6246C23.7815 18.6029 23.2052 18.6045 22.6295 18.6045C22.0532 18.6045 21.1169 18.8213 20.3254 19.6855C19.5332 20.5504 17.3008 22.6406 17.3008 26.8919C17.3008 31.1435 20.3973 35.252 20.829 35.8291C21.2612 36.4051 26.8069 45.4086 35.59 48.8722C42.8896 51.7506 44.375 51.1781 45.9593 51.0338C47.5438 50.89 51.072 48.9441 51.7918 46.9263C52.5121 44.9088 52.5121 43.1794 52.2962 42.818C52.0802 42.458 51.5039 42.2417 50.6398 41.8098C49.7754 41.3776 45.5271 39.2871 44.7351 38.9987C43.9428 38.7105 43.3668 38.5667 42.7905 39.432C42.2143 40.2958 40.5595 42.2417 40.0551 42.818C39.5513 43.3956 39.0469 43.4675 38.183 43.0353C37.3183 42.6018 34.5354 41.6904 31.2338 38.7469C28.6649 36.4564 26.9307 33.6279 26.4266 32.7627C25.9224 31.8988 26.3726 31.4305 26.8059 30.9999C27.1941 30.6128 27.6703 29.9909 28.1028 29.4865C28.5336 28.9819 28.6774 28.6218 28.9655 28.0456C29.254 27.4687 29.1096 26.9641 28.8939 26.5319C28.6774 26.0997 26.9982 21.8261 26.2299 20.1177Z" fill="white"/>
</g>
<defs>
<linearGradient id="paint0_linear_2448_471" x1="3353.78" y1="6736.54" x2="3353.78" y2="1.20792" gradientUnits="userSpaceOnUse">
<stop stop-color="#1FAF38"/>
<stop offset="1" stop-color="#60D669"/>
</linearGradient>
<linearGradient id="paint1_linear_2448_471" x1="3472.87" y1="6976.86" x2="3472.87" y2="0" gradientUnits="userSpaceOnUse">
<stop stop-color="#F9F9F9"/>
<stop offset="1" stop-color="white"/>
</linearGradient>
<clipPath id="clip0_2448_471">
<rect width="69.4574" height="70" fill="white"/>
</clipPath>
</defs>
</svg>
