<svg width="484" height="417" viewBox="0 0 484 417" fill="none" xmlns="http://www.w3.org/2000/svg">
<g opacity="0.25">
<g opacity="0.3">
<mask id="mask0_3516_996" style="mask-type:luminance" maskUnits="userSpaceOnUse" x="71" y="59" width="310" height="289">
<path d="M71.1836 59.0509H380.92V347.488H71.1836V59.0509Z" fill="white"/>
</mask>
<g mask="url(#mask0_3516_996)">
<mask id="mask1_3516_996" style="mask-type:luminance" maskUnits="userSpaceOnUse" x="72" y="59" width="307" height="287">
<path d="M285.646 92.4054C285.407 93.1005 285.331 119.319 285.342 153.043L238.574 179.251V118.776L285.646 92.4054ZM205.589 153.075V139.944L187.136 144.886L171.561 149.089L168.846 149.828L137.468 158.278V168.574L170.225 161.091L205.589 153.075ZM205.589 179.685V166.901L186.865 170.192L171.094 172.995L168.357 173.483L137.468 178.968V190.025L170.204 185.039L205.589 179.685ZM205.589 126.466V112.998L187.408 119.58L172.028 125.184L169.346 126.172L137.468 137.772V147.123L170.258 137.153L205.589 126.466ZM170.171 208.966L205.589 206.295V193.848L186.593 195.499L170.627 196.9L167.879 197.139L137.479 199.811V211.323L137.827 211.443L170.171 208.966ZM345.882 119.124V253.616L378.519 268.333V158.723L345.882 119.124ZM205.589 99.8452V86.0517L187.679 94.2844L172.495 101.279L169.834 102.517L137.468 117.418V125.684L170.28 113.215L205.589 99.8452ZM205.567 73.2139L205.589 59.0945L187.962 68.9781L170.323 78.8616L137.468 97.2712V104.244L170.312 89.2774L205.567 73.2139ZM254.29 265.314L222.196 272.363L194.522 278.445L145.571 289.197L99.0745 299.407L95.6424 300.167L72.1934 305.315V310.279L169.715 296.398L183.65 294.41L222.196 288.926L254.301 284.353L254.442 284.375V265.281L254.29 265.314ZM254.29 229.917L238.183 235.533L233.035 237.336L222.196 241.115L219.263 242.136L124.511 275.186L95.6316 285.255L72.1934 293.444V298.625L95.6316 292.564L118.907 286.558L128.443 284.092L203.96 264.597L222.185 259.883L254.29 251.596L254.431 251.629V229.972L254.29 229.917ZM222.196 302.947L72.1934 315.242V319.977L222.196 317.338L254.29 316.773L254.431 316.784V300.308L254.29 300.319L222.196 302.947ZM167.141 220.794L205.155 232.937L205.252 232.904V229.07L205.263 224.932V220.794H167.141ZM222.196 328.873L72.1934 324.376V328.862L254.29 345.164H254.431V329.839H254.29L222.196 328.873Z" fill="white"/>
</mask>
<g mask="url(#mask1_3516_996)">
<path d="M72.1934 59.0945V345.164H378.519V59.0945H72.1934Z" fill="url(#paint0_linear_3516_996)"/>
</g>
</g>
</g>
<g opacity="0.3">
<mask id="mask2_3516_996" style="mask-type:luminance" maskUnits="userSpaceOnUse" x="94" y="59" width="311" height="289">
<path d="M94.5352 59.0509H404.836V347.488H94.5352V59.0509Z" fill="white"/>
</mask>
<g mask="url(#mask2_3516_996)">
<path d="M308.445 140.096L285.647 152.869V92.4054L308.445 120.058V140.096ZM205.59 73.2356L238.184 102.865V98.6179L205.59 59.0945V73.2356ZM205.59 99.8452L238.184 124.543V118.982L205.59 86.0517V99.8452ZM205.59 126.466L238.184 146.222V139.347L205.59 112.998V126.466ZM205.59 153.075L238.184 167.89V159.711L205.59 139.944V153.075ZM205.59 179.685L226.487 186.017L237.554 179.815L205.59 166.901V179.685ZM205.59 206.295L222.197 208.814V197.204L205.59 193.848V206.295ZM205.264 232.893L222.197 225.79V220.794H205.264V232.893ZM95.6328 278.89L124.512 266.78V207.185L95.6328 228.527V278.89ZM378.52 277.532L345.883 265.02L345.503 264.879L254.433 229.972V251.629L345.524 275.968L345.883 276.055L378.52 284.777L404.25 291.652V287.394L378.52 277.532ZM354.116 289.328L345.883 287.34L345.546 287.253L254.433 265.281V284.375L254.552 284.353L345.568 297.745L378.52 302.589L404.25 306.379V301.416L378.52 295.214L354.116 289.328ZM345.59 309.399L254.433 300.297V316.773H254.552L345.6 318.718L378.52 319.424L404.25 319.967V315.242L378.52 312.679L345.59 309.399ZM345.622 328.123L254.715 329.85L254.433 329.839V345.153L378.52 332.576L404.25 329.97V327.015L378.52 327.504L345.622 328.123Z" fill="#8E8F93"/>
</g>
</g>
<g opacity="0.3">
<mask id="mask3_3516_996" style="mask-type:luminance" maskUnits="userSpaceOnUse" x="13" y="11" width="160" height="395">
<path d="M13.9023 11.0558H172.257V405.878H13.9023V11.0558Z" fill="white"/>
</mask>
<g mask="url(#mask3_3516_996)">
<path d="M168.728 394.234C224.325 355.102 278.337 316.925 303.079 258.699C327.94 200.223 323.596 120.959 319.045 39.9789L324.454 44.6166C303.416 46.615 282.074 48.6352 262.687 48.6352C252.879 48.6352 243.484 48.1247 234.795 46.7996C208.794 42.8353 189.896 31.7462 171.769 21.1566L176.178 21.4499L175.874 21.5802C145.854 34.1356 114.998 47.0603 89.0073 50.6879C83.2835 51.4916 77.7986 51.85 72.5093 51.85C53.4698 51.85 36.9827 47.2667 21.1799 42.8896L27.4467 38.2846L27.4359 38.5887C24.6337 126.857 22.027 213.398 46.345 272.145C70.4783 330.447 121.438 361.803 174.147 394.061L168.728 394.234ZM174.419 402.326C172.8 403.456 170.672 403.532 168.988 402.5C116.746 370.536 62.7669 337.67 37.2108 275.925C11.8937 214.755 14.7827 125.684 17.5414 38.2846L17.5523 37.9696C17.6066 36.449 18.3451 35.0371 19.5616 34.1465C20.7889 33.245 22.3529 32.9518 23.8191 33.3536C39.7415 37.7632 55.0013 41.9556 72.5093 41.9556C77.3533 41.9556 82.382 41.6298 87.6388 40.9021C112.076 37.4808 141.629 25.1752 172.051 12.4461L172.366 12.3266C173.789 11.7184 175.429 11.827 176.765 12.6198C194.957 23.242 212.367 33.3753 236.283 37.0138C244.331 38.2411 253.205 38.7407 262.687 38.7407C281.509 38.7407 302.373 36.7749 323.52 34.7764C324.855 34.6461 326.191 35.0697 327.212 35.9494C328.233 36.8183 328.852 38.0782 328.928 39.425C333.425 119.601 338.139 201.516 312.191 262.566C286.136 323.855 229.474 363.574 174.419 402.326Z" fill="#8E8F93"/>
</g>
</g>
<g opacity="0.3">
<mask id="mask4_3516_996" style="mask-type:luminance" maskUnits="userSpaceOnUse" x="0" y="0" width="173" height="417">
<path d="M0 0H172.257V417H0V0Z" fill="white"/>
</mask>
<g mask="url(#mask4_3516_996)">
<path d="M8.47247 14.1735L8.53763 14.1952C31.6066 22.9275 54.1433 31.41 81.4697 29.2269C82.86 29.1183 84.261 28.9771 85.673 28.8034C112.304 25.6971 143.237 13.3155 174.614 0.738347C175.342 0.445101 176.178 0.510266 176.852 0.912125C195.641 12.023 214.007 22.8624 240.28 26.2401C262.85 29.1292 291.36 26.5334 321.065 23.0579C326.148 22.4714 331.242 21.8523 336.347 21.2332C337.053 21.1463 337.758 21.3527 338.291 21.8088C338.834 22.265 339.16 22.9167 339.192 23.6226L339.214 23.9159C344.025 116.517 348.902 209.999 321.423 275.632C293.825 341.559 233.764 379.127 174.603 416.229C173.821 416.717 172.844 416.739 172.04 416.305L171.888 416.218H171.877C111.859 383.483 50.8415 350.259 22.8525 283.105C-5.03871 216.2 0.0551349 115.844 5.04037 16.4326C5.07295 15.618 5.5074 14.8686 6.18078 14.4233C6.86503 13.978 7.71219 13.8911 8.47247 14.1735ZM6.68039 18.9306L10.1125 16.6824C5.10554 116.583 0.207191 215.549 27.5445 281.15C54.7406 346.392 113.999 378.856 174.321 411.754L174.473 411.841L171.899 411.917C231.342 374.642 289.861 337.855 316.731 273.666C343.667 209.336 338.964 117.223 334.131 24.1765L334.12 23.8833L336.966 26.2836C331.861 26.9027 326.734 27.5218 321.652 28.1082C292.022 31.5729 262.915 34.2665 239.64 31.2797C212.215 27.7607 193.035 16.3892 174.267 5.28914L176.504 5.46291C145.333 17.9531 113.716 30.6497 86.2703 33.8646C84.7932 34.0275 83.327 34.1796 81.8716 34.2991C53.2527 36.5907 29.7167 27.6521 6.7347 18.9524L6.66953 18.9306H6.68039Z" fill="#8E8F93"/>
</g>
</g>
<g opacity="0.3">
<mask id="mask5_3516_996" style="mask-type:luminance" maskUnits="userSpaceOnUse" x="311" y="11" width="162" height="395">
<path d="M311.42 11.0558H472.674V405.878H311.42V11.0558Z" fill="white"/>
</mask>
<g mask="url(#mask5_3516_996)">
<path d="M308.531 394.234C364.129 355.102 418.141 316.925 442.893 258.699C467.743 200.223 463.41 120.959 458.859 39.9789L464.257 44.6166C443.219 46.615 421.877 48.6352 402.501 48.6352C392.693 48.6352 383.287 48.1247 374.599 46.7996C348.597 42.8353 329.699 31.7462 311.583 21.1566L315.981 21.4499L315.677 21.5802C285.668 34.1356 254.801 47.0603 228.821 50.6879C223.098 51.4916 217.613 51.85 212.323 51.85C193.273 51.85 176.797 47.2667 160.994 42.8896L167.25 38.2846L167.239 38.5887C164.448 126.857 161.841 213.398 186.148 272.145C210.281 330.447 261.252 361.803 313.961 394.061L308.531 394.234ZM314.222 402.326C312.614 403.456 310.475 403.532 308.802 402.5C256.56 370.536 202.57 337.67 177.014 275.925C151.697 214.755 154.586 125.684 157.355 38.2846L157.366 37.9696C157.41 36.449 158.148 35.0371 159.376 34.1465C160.592 33.245 162.167 32.9518 163.622 33.3536C179.555 37.7632 194.804 41.9556 212.323 41.9556C217.167 41.9556 222.196 41.6298 227.453 40.9021C251.89 37.4808 281.432 25.1752 311.865 12.4461L312.169 12.3266C313.603 11.7184 315.232 11.827 316.568 12.6198C334.76 23.242 352.181 33.3753 376.087 37.0138C384.135 38.2411 393.008 38.7407 402.501 38.7407C421.323 38.7407 442.176 36.7749 463.323 34.7764C464.669 34.6461 465.995 35.0697 467.015 35.9494C468.036 36.8183 468.656 38.0782 468.732 39.425C473.239 119.601 477.942 201.516 451.995 262.566C425.939 323.855 369.288 363.574 314.222 402.326Z" fill="#8E8F93"/>
</g>
</g>
<g opacity="0.3">
<mask id="mask6_3516_996" style="mask-type:luminance" maskUnits="userSpaceOnUse" x="311" y="0" width="173" height="417">
<path d="M311.42 0H483.796V417H311.42V0Z" fill="white"/>
</mask>
<g mask="url(#mask6_3516_996)">
<path d="M148.286 14.1735L148.341 14.1952C171.42 22.9275 193.946 31.41 221.273 29.2269C222.663 29.1183 224.064 28.9771 225.487 28.8034C252.118 25.6971 283.04 13.3155 314.417 0.738347C315.156 0.445101 315.981 0.510266 316.665 0.912125C335.444 12.023 353.821 22.8624 380.094 26.2401C402.663 29.1292 431.163 26.5334 460.868 23.0579C465.951 22.4714 471.045 21.8523 476.16 21.2332C476.855 21.1463 477.561 21.3527 478.104 21.8088C478.637 22.265 478.962 22.9167 479.006 23.6226L479.017 23.9159C483.828 116.517 488.716 209.999 461.237 275.632C433.639 341.559 373.567 379.127 314.417 416.229C313.635 416.717 312.647 416.739 311.843 416.305L311.691 416.218C251.662 383.483 190.644 350.259 162.666 283.105C134.775 216.2 139.858 115.844 144.843 16.4326C144.887 15.618 145.31 14.8686 145.995 14.4233C146.668 13.978 147.526 13.8911 148.286 14.1735ZM146.483 18.9306L149.926 16.6824C144.919 116.583 140.021 215.549 167.358 281.15C194.544 346.392 253.812 378.856 314.124 411.754L314.276 411.841L311.713 411.917C371.145 374.642 429.675 337.855 456.545 273.666C483.47 209.336 478.778 117.223 473.945 24.1765L473.923 23.8833L476.769 26.2836C471.675 26.9027 466.548 27.5218 461.465 28.1082C431.836 31.5729 402.729 34.2665 379.442 31.2797C352.018 27.7607 332.838 16.3892 314.07 5.28914L316.318 5.46291C285.147 17.9531 253.519 30.6497 226.073 33.8646C224.596 34.0275 223.13 34.1796 221.685 34.2991C193.066 36.5907 169.52 27.6521 146.538 18.9524L146.483 18.9306Z" fill="#8E8F93"/>
</g>
</g>
</g>
<defs>
<linearGradient id="paint0_linear_3516_996" x1="250.808" y1="45.2997" x2="216.723" y2="360.784" gradientUnits="userSpaceOnUse">
<stop stop-color="#4E515E"/>
</linearGradient>
</defs>
</svg>
