<svg width="134" height="63" viewBox="0 0 134 63" fill="none" xmlns="http://www.w3.org/2000/svg">
<mask id="mask0_2455_3141" style="mask-type:luminance" maskUnits="userSpaceOnUse" x="49" y="5" width="32" height="30">
<path d="M49.8867 5.9198H80.9375V34.8354H49.8867V5.9198Z" fill="white"/>
</mask>
<g mask="url(#mask0_2455_3141)">
<mask id="mask1_2455_3141" style="mask-type:luminance" maskUnits="userSpaceOnUse" x="49" y="5" width="32" height="30">
<path d="M71.3867 9.26352C71.3627 9.3332 71.3551 11.9616 71.3562 15.3424L66.6678 17.9697V11.9072L71.3867 9.26352ZM63.3611 15.3456V14.0292L61.5112 14.5247L59.9498 14.946L59.6776 15.0201L56.532 15.8672V16.8994L59.8159 16.1492L63.3611 15.3456ZM63.3611 18.0132V16.7317L61.484 17.0616L59.903 17.3425L59.6286 17.3915L56.532 17.9413V19.0498L59.8137 18.55L63.3611 18.0132ZM63.3611 12.678V11.3279L61.5384 11.9877L59.9966 12.5496L59.7277 12.6486L56.532 13.8115V14.749L59.8192 13.7494L63.3611 12.678ZM59.8105 20.9486L63.3611 20.6808V19.433L61.4567 19.5985L59.8562 19.739L59.5807 19.7629L56.5331 20.0308V21.1849L56.568 21.1969L59.8105 20.9486ZM77.4252 11.942V25.4248L80.6971 26.9001V15.9118L77.4252 11.942ZM63.3611 10.0094V8.62656L61.5656 9.45188L60.0435 10.1531L59.7767 10.2772L56.532 11.7711V12.5996L59.8213 11.3497L63.3611 10.0094ZM63.3589 7.33959L63.3611 5.92413L61.5939 6.91495L59.8257 7.90577L56.532 9.75131V10.4503L59.8246 8.94994L63.3589 7.33959ZM68.2433 26.5974L65.0259 27.304L62.2516 27.9138L57.3443 28.9917L52.6831 30.0152L52.339 30.0914L49.9883 30.6075V31.1051L59.7647 29.7136L61.1617 29.5143L65.0259 28.9645L68.2444 28.5061L68.2585 28.5083V26.5941L68.2433 26.5974ZM68.2433 23.049L66.6286 23.6119L66.1125 23.7926L65.0259 24.1715L64.7319 24.2739L55.2331 27.5871L52.3379 28.5965L49.9883 29.4174V29.9368L52.3379 29.3292L54.6713 28.7271L55.6272 28.48L63.1977 26.5255L65.0248 26.053L68.2433 25.2222L68.2575 25.2255V23.0544L68.2433 23.049ZM65.0259 30.3701L49.9883 31.6027V32.0774L65.0259 31.8128L68.2433 31.7562L68.2575 31.7573V30.1056L68.2433 30.1066L65.0259 30.3701ZM59.5067 22.1344L63.3175 23.3517L63.3273 23.3484V22.964L63.3284 22.5492V22.1344H59.5067ZM65.0259 32.9691L49.9883 32.5184V32.968L68.2433 34.6023H68.2575V33.066H68.2433L65.0259 32.9691Z" fill="white"/>
</mask>
<g mask="url(#mask1_2455_3141)">
<path d="M49.9883 5.92413V34.6023H80.6971V5.92413H49.9883Z" fill="url(#paint0_linear_2455_3141)"/>
</g>
</g>
<mask id="mask2_2455_3141" style="mask-type:luminance" maskUnits="userSpaceOnUse" x="52" y="5" width="32" height="30">
<path d="M52.2266 5.9198H83.3339V34.8354H52.2266V5.9198Z" fill="white"/>
</mask>
<g mask="url(#mask2_2455_3141)">
<path d="M73.6701 14.0445L71.3847 15.3249V9.26352L73.6701 12.0356V14.0445ZM63.3591 7.34177L66.6266 10.312V9.88632L63.3591 5.92413V7.34177ZM63.3591 10.0094L66.6266 12.4853V11.9278L63.3591 8.62656V10.0094ZM63.3591 12.678L66.6266 14.6586V13.9694L63.3591 11.3279V12.678ZM63.3591 15.3456L66.6266 16.8308V16.0109L63.3591 14.0292V15.3456ZM63.3591 18.0132L65.4539 18.648L66.5634 18.0263L63.3591 16.7317V18.0132ZM63.3591 20.6808L65.0239 20.9334V19.7695L63.3591 19.433V20.6808ZM63.3264 23.3473L65.0239 22.6352V22.1344H63.3264V23.3473ZM52.3359 27.9584L55.2311 26.7444V20.7701L52.3359 22.9096V27.9584ZM80.6951 27.8223L77.4233 26.568L77.3851 26.5539L68.2555 23.0544V25.2255L77.3873 27.6655L77.4233 27.6742L80.6951 28.5486L83.2745 29.2378V28.811L80.6951 27.8223ZM78.2486 29.0048L77.4233 28.8055L77.3895 28.7968L68.2555 26.5941V28.5083L68.2674 28.5061L77.3917 29.8486L80.6951 30.3342L83.2745 30.7142V30.2166L80.6951 29.5949L78.2486 29.0048ZM77.3939 31.0169L68.2555 30.1045V31.7562H68.2674L77.3949 31.9511L80.6951 32.0219L83.2745 32.0763V31.6027L80.6951 31.3457L77.3939 31.0169ZM77.3971 32.894L68.2838 33.0671L68.2555 33.066V34.6013L80.6951 33.3404L83.2745 33.0791V32.7829L80.6951 32.8319L77.3971 32.894Z" fill="#8E8F93"/>
</g>
<mask id="mask3_2455_3141" style="mask-type:luminance" maskUnits="userSpaceOnUse" x="44" y="1" width="17" height="40">
<path d="M44.1445 1.10835H60.0194V40.6888H44.1445V1.10835Z" fill="white"/>
</mask>
<g mask="url(#mask3_2455_3141)">
<path d="M59.6647 39.5216C65.2384 35.5986 70.653 31.7715 73.1333 25.9343C75.6256 20.0722 75.1901 12.126 74.7339 4.00784L75.2761 4.47276C73.1671 4.6731 71.0276 4.87562 69.0841 4.87562C68.1009 4.87562 67.159 4.82445 66.288 4.69161C63.6814 4.2942 61.7868 3.18252 59.9696 2.12093L60.4117 2.15033L60.3812 2.16339C57.3717 3.42206 54.2784 4.71775 51.6729 5.08141C51.0991 5.16198 50.5492 5.19791 50.019 5.19791C48.1103 5.19791 46.4575 4.73843 44.8732 4.29964L45.5015 3.83799L45.5004 3.86847C45.2195 12.7172 44.9582 21.3929 47.396 27.2823C49.8154 33.127 54.9241 36.2704 60.2081 39.5042L59.6647 39.5216ZM60.2353 40.3328C60.0731 40.446 59.8596 40.4536 59.6909 40.3502C54.4537 37.1458 49.0423 33.8511 46.4803 27.6612C43.9423 21.529 44.2319 12.5997 44.5085 3.83799L44.5096 3.80641C44.515 3.65398 44.5891 3.51243 44.711 3.42315C44.834 3.33278 44.9908 3.30338 45.1378 3.34366C46.734 3.78572 48.2638 4.206 50.019 4.206C50.5046 4.206 51.0087 4.17334 51.5357 4.10039C53.9855 3.75741 56.9482 2.52379 59.9979 1.2477L60.0295 1.23572C60.1721 1.17475 60.3365 1.18564 60.4705 1.26512C62.2942 2.32998 64.0396 3.34584 66.4372 3.71059C67.244 3.83363 68.1335 3.88372 69.0841 3.88372C70.971 3.88372 73.0626 3.68664 75.1825 3.4863C75.3164 3.47323 75.4503 3.5157 75.5527 3.60389C75.655 3.691 75.7171 3.8173 75.7247 3.95231C76.1755 11.9899 76.648 20.2017 74.0469 26.3219C71.4348 32.4661 65.7545 36.4479 60.2353 40.3328Z" fill="#8E8F93"/>
</g>
<mask id="mask4_2455_3141" style="mask-type:luminance" maskUnits="userSpaceOnUse" x="42" y="0" width="19" height="42">
<path d="M42.75 0H60.0186V41.8038H42.75V0Z" fill="white"/>
</mask>
<g mask="url(#mask4_2455_3141)">
<path d="M43.6002 1.42091L43.6068 1.42309C45.9194 2.2985 48.1787 3.14886 50.9182 2.93001C51.0575 2.91912 51.198 2.90496 51.3395 2.88754C54.0093 2.57614 57.1102 1.3349 60.2558 0.0740539C60.3288 0.0446562 60.4126 0.0511889 60.4801 0.0914749C62.3637 1.20533 64.2049 2.29196 66.8388 2.63058C69.1013 2.92021 71.9594 2.65998 74.9373 2.31156C75.4469 2.25277 75.9576 2.1907 76.4693 2.12864C76.5401 2.11993 76.6108 2.14062 76.6642 2.18635C76.7186 2.23208 76.7513 2.29741 76.7546 2.36818L76.7567 2.39758C77.2391 11.6808 77.728 21.0522 74.9733 27.6319C72.2066 34.241 66.1855 38.0072 60.2547 41.7265C60.1763 41.7755 60.0783 41.7777 59.9978 41.7342L59.9825 41.7255H59.9814C53.9647 38.4438 47.8477 35.1131 45.0418 28.381C42.2458 21.6739 42.7564 11.6133 43.2562 1.64739C43.2595 1.56573 43.303 1.4906 43.3705 1.44596C43.4391 1.40132 43.524 1.3926 43.6002 1.42091ZM43.4206 1.89781L43.7647 1.67243C43.2627 11.6873 42.7717 21.6086 45.5122 28.185C48.2386 34.7255 54.1791 37.9799 60.2264 41.278L60.2417 41.2867L59.9836 41.2943C65.9427 37.5575 71.8092 33.8697 74.5029 27.4348C77.2032 20.9858 76.7317 11.7516 76.2472 2.42371L76.2461 2.39431L76.5314 2.63494C76.0196 2.697 75.5057 2.75906 74.9961 2.81786C72.0259 3.16519 69.1078 3.43522 66.7745 3.13579C64.0253 2.78302 62.1024 1.64303 60.221 0.530266L60.4453 0.547687C57.3204 1.79982 54.1508 3.07264 51.3994 3.39493C51.2513 3.41126 51.1043 3.42651 50.9584 3.43848C48.0894 3.66822 45.73 2.77213 43.426 1.89999L43.4195 1.89781H43.4206Z" fill="#8E8F93"/>
</g>
<mask id="mask5_2455_3141" style="mask-type:luminance" maskUnits="userSpaceOnUse" x="73" y="1" width="18" height="40">
<path d="M73.9688 1.10835H90.1343V40.6888H73.9688V1.10835Z" fill="white"/>
</mask>
<g mask="url(#mask5_2455_3141)">
<path d="M73.68 39.5216C79.2537 35.5986 84.6683 31.7715 87.1497 25.9343C89.6409 20.0722 89.2065 12.126 88.7503 4.00784L89.2914 4.47276C87.1824 4.6731 85.0429 4.87562 83.1004 4.87562C82.1172 4.87562 81.1743 4.82445 80.3033 4.69161C77.6967 4.2942 75.8021 3.18252 73.986 2.12093L74.4269 2.15033L74.3965 2.16339C71.3881 3.42206 68.2937 4.71775 65.6892 5.08141C65.1154 5.16198 64.5656 5.19791 64.0353 5.19791C62.1256 5.19791 60.4738 4.73843 58.8896 4.29964L59.5168 3.83799L59.5157 3.86847C59.2358 12.7172 58.9745 21.3929 61.4113 27.2823C63.8306 33.127 68.9404 36.2704 74.2244 39.5042L73.68 39.5216ZM74.2506 40.3328C74.0894 40.446 73.8749 40.4536 73.7072 40.3502C68.4701 37.1458 63.0576 33.8511 60.4956 27.6612C57.9576 21.529 58.2472 12.5997 58.5249 3.83799L58.5259 3.80641C58.5303 3.65398 58.6043 3.51243 58.7274 3.42315C58.8493 3.33278 59.0072 3.30338 59.1531 3.34366C60.7504 3.78572 62.2791 4.206 64.0353 4.206C64.5209 4.206 65.0251 4.17334 65.552 4.10039C68.0019 3.75741 70.9634 2.52379 74.0143 1.2477L74.0448 1.23572C74.1885 1.17475 74.3518 1.18564 74.4857 1.26512C76.3095 2.32998 78.056 3.34584 80.4524 3.71059C81.2592 3.83363 82.1488 3.88372 83.1004 3.88372C84.9873 3.88372 87.0779 3.68664 89.1978 3.4863C89.3328 3.47323 89.4656 3.5157 89.568 3.60389C89.6703 3.691 89.7324 3.8173 89.74 3.95231C90.1919 11.9899 90.6633 20.2017 88.0621 26.3219C85.4501 32.4661 79.7708 36.4479 74.2506 40.3328Z" fill="#8E8F93"/>
</g>
<mask id="mask6_2455_3141" style="mask-type:luminance" maskUnits="userSpaceOnUse" x="73" y="0" width="19" height="42">
<path d="M73.9688 0H91.2493V41.8038H73.9688V0Z" fill="white"/>
</mask>
<g mask="url(#mask6_2455_3141)">
<path d="M57.6146 1.42091L57.6201 1.42309C59.9338 2.2985 62.192 3.14886 64.9315 2.93001C65.0708 2.91912 65.2113 2.90496 65.3539 2.88754C68.0237 2.57614 71.1235 1.3349 74.2691 0.0740539C74.3431 0.0446562 74.4259 0.0511889 74.4945 0.0914749C76.377 1.20533 78.2193 2.29196 80.8531 2.63058C83.1157 2.92021 85.9727 2.65998 88.9506 2.31156C89.4602 2.25277 89.9709 2.1907 90.4837 2.12864C90.5534 2.11993 90.6241 2.14062 90.6786 2.18635C90.7319 2.23208 90.7646 2.29741 90.769 2.36818L90.77 2.39758C91.2524 11.6808 91.7424 21.0522 88.9877 27.6319C86.221 34.241 80.1988 38.0072 74.2691 41.7265C74.1907 41.7755 74.0916 41.7777 74.0111 41.7342L73.9958 41.7255C67.978 38.4438 61.861 35.1131 59.0562 28.381C56.2602 21.6739 56.7697 11.6133 57.2695 1.64739C57.2738 1.56573 57.3163 1.4906 57.3849 1.44596C57.4524 1.40132 57.5384 1.3926 57.6146 1.42091ZM57.4339 1.89781L57.7791 1.67243C57.2771 11.6873 56.7861 21.6086 59.5266 28.185C62.2519 34.7255 68.1935 37.9799 74.2397 41.278L74.255 41.2867L73.998 41.2943C79.956 37.5575 85.8236 33.8697 88.5173 27.4348C91.2165 20.9858 90.7461 11.7516 90.2616 2.42371L90.2594 2.39431L90.5447 2.63494C90.034 2.697 89.5201 2.75906 89.0105 2.81786C86.0402 3.16519 83.1222 3.43522 80.7878 3.13579C78.0386 2.78302 76.1157 1.64303 74.2343 0.530266L74.4596 0.547687C71.3348 1.79982 68.1641 3.07264 65.4127 3.39493C65.2646 3.41126 65.1176 3.42651 64.9728 3.43848C62.1038 3.66822 59.7433 2.77213 57.4393 1.89999L57.4339 1.89781Z" fill="#8E8F93"/>
</g>
<path d="M0.84 58.8038V47.4638H3.794C4.27933 47.4638 4.73667 47.5012 5.166 47.5758C5.60467 47.6505 5.992 47.7952 6.328 48.0098C6.664 48.2152 6.92533 48.5138 7.112 48.9058C7.308 49.2885 7.406 49.7972 7.406 50.4318C7.406 50.8892 7.336 51.2765 7.196 51.5938C7.06533 51.9018 6.874 52.1492 6.622 52.3358C6.37933 52.5225 6.08533 52.6485 5.74 52.7138C6.17867 52.7698 6.54733 52.9145 6.846 53.1478C7.14467 53.3718 7.36867 53.6752 7.518 54.0578C7.67667 54.4405 7.756 54.9025 7.756 55.4438C7.756 56.0318 7.67667 56.5405 7.518 56.9698C7.36867 57.3898 7.14933 57.7352 6.86 58.0058C6.57067 58.2765 6.21133 58.4772 5.782 58.6078C5.362 58.7385 4.87667 58.8038 4.326 58.8038H0.84ZM3.346 57.0538H3.878C4.42867 57.0538 4.80667 56.9138 5.012 56.6338C5.22667 56.3538 5.334 55.9432 5.334 55.4018C5.334 54.9725 5.28733 54.6318 5.194 54.3798C5.10067 54.1278 4.94667 53.9458 4.732 53.8338C4.51733 53.7125 4.228 53.6518 3.864 53.6518H3.346V57.0538ZM3.346 51.9998H3.836C4.21867 51.9998 4.508 51.9438 4.704 51.8318C4.9 51.7105 5.03067 51.5378 5.096 51.3138C5.17067 51.0898 5.208 50.8192 5.208 50.5018C5.208 50.2032 5.152 49.9558 5.04 49.7598C4.93733 49.5545 4.77867 49.4005 4.564 49.2978C4.35867 49.1952 4.09733 49.1438 3.78 49.1438H3.346V51.9998ZM9.33713 58.8038L11.4791 47.4638H14.3351L16.4491 58.8038H14.1391L13.7611 56.4098H12.0951L11.7031 58.8038H9.33713ZM12.3191 54.9118H13.5231L12.9211 50.4878L12.3191 54.9118ZM18.8545 58.8038V49.3258H17.1465V47.4638H23.0685V49.3258H21.3745V58.8038H18.8545ZM28.1829 58.9718C27.3149 58.9718 26.6335 58.8318 26.1389 58.5518C25.6535 58.2625 25.3129 57.8472 25.1169 57.3058C24.9209 56.7552 24.8229 56.0832 24.8229 55.2898V47.4638H27.3009V55.6678C27.3009 55.9012 27.3195 56.1345 27.3569 56.3678C27.3942 56.6012 27.4735 56.7925 27.5949 56.9418C27.7255 57.0912 27.9215 57.1658 28.1829 57.1658C28.4535 57.1658 28.6495 57.0912 28.7709 56.9418C28.8922 56.7925 28.9669 56.6012 28.9949 56.3678C29.0322 56.1345 29.0509 55.9012 29.0509 55.6678V47.4638H31.5429V55.2898C31.5429 56.0832 31.4402 56.7552 31.2349 57.3058C31.0389 57.8472 30.6982 58.2625 30.2129 58.5518C29.7275 58.8318 29.0509 58.9718 28.1829 58.9718ZM33.9353 58.8038L34.1313 47.4638H36.8193L38.0653 54.0578L39.4093 47.4638H41.9993L42.1953 58.8038H40.4173L40.2073 51.2578L38.8913 58.8038H37.3093L35.9093 51.2018L35.7413 58.8038H33.9353ZM44.6888 58.8038V47.4638H47.1948V58.8038H44.6888ZM57.1577 58.9718C56.4484 58.9718 55.8557 58.8458 55.3797 58.5938C54.9037 58.3418 54.5444 57.9545 54.3017 57.4318C54.0591 56.8998 53.9237 56.2138 53.8957 55.3738L56.0377 55.0518C56.0471 55.5372 56.0891 55.9292 56.1637 56.2278C56.2477 56.5265 56.3597 56.7412 56.4997 56.8718C56.6491 57.0025 56.8264 57.0678 57.0317 57.0678C57.2931 57.0678 57.4611 56.9792 57.5357 56.8018C57.6197 56.6245 57.6617 56.4378 57.6617 56.2418C57.6617 55.7752 57.5497 55.3832 57.3257 55.0658C57.1017 54.7392 56.7984 54.4125 56.4157 54.0858L55.4357 53.2318C55.0064 52.8678 54.6424 52.4572 54.3437 51.9998C54.0544 51.5332 53.9097 50.9592 53.9097 50.2778C53.9097 49.3165 54.1944 48.5838 54.7637 48.0798C55.3331 47.5665 56.1077 47.3098 57.0877 47.3098C57.6944 47.3098 58.1797 47.4125 58.5437 47.6178C58.9171 47.8232 59.1971 48.0938 59.3837 48.4298C59.5797 48.7565 59.7104 49.1065 59.7757 49.4798C59.8504 49.8438 59.8924 50.1938 59.9017 50.5298L57.7457 50.7958C57.7364 50.4598 57.7131 50.1705 57.6757 49.9278C57.6477 49.6758 57.5824 49.4845 57.4797 49.3538C57.3771 49.2138 57.2184 49.1438 57.0037 49.1438C56.7704 49.1438 56.5977 49.2418 56.4857 49.4378C56.3831 49.6338 56.3317 49.8298 56.3317 50.0258C56.3317 50.4458 56.4297 50.7912 56.6257 51.0618C56.8311 51.3232 57.0971 51.5985 57.4237 51.8878L58.3617 52.7138C58.8564 53.1338 59.2717 53.6098 59.6077 54.1418C59.9531 54.6738 60.1257 55.3318 60.1257 56.1158C60.1257 56.6478 60.0044 57.1332 59.7617 57.5718C59.5191 58.0012 59.1737 58.3418 58.7257 58.5938C58.2871 58.8458 57.7644 58.9718 57.1577 58.9718ZM61.5238 58.8038L63.6658 47.4638H66.5218L68.6358 58.8038H66.3258L65.9478 56.4098H64.2818L63.8898 58.8038H61.5238ZM64.5058 54.9118H65.7098L65.1078 50.4878L64.5058 54.9118ZM70.6207 58.8038V47.4638H75.5207V49.1578H73.1267V52.0138H75.2127V53.7638H73.1267V58.8038H70.6207ZM77.531 58.8038V47.4638H82.627V49.1718H80.037V51.9858H82.011V53.7218H80.037V57.1098H82.655V58.8038H77.531ZM89.0548 58.8038V47.4638H92.1768C92.9421 47.4638 93.6048 47.5478 94.1648 47.7158C94.7248 47.8838 95.1588 48.1872 95.4668 48.6258C95.7841 49.0552 95.9428 49.6665 95.9428 50.4598C95.9428 50.9265 95.9054 51.3418 95.8308 51.7058C95.7561 52.0698 95.6161 52.3872 95.4108 52.6578C95.2148 52.9192 94.9301 53.1385 94.5568 53.3158L96.1108 58.8038H93.5208L92.2748 53.7218H91.5608V58.8038H89.0548ZM91.5608 52.2798H92.2608C92.6154 52.2798 92.8908 52.2192 93.0868 52.0978C93.2828 51.9672 93.4181 51.7852 93.4928 51.5518C93.5768 51.3092 93.6188 51.0198 93.6188 50.6838C93.6188 50.1985 93.5301 49.8205 93.3528 49.5498C93.1754 49.2792 92.8488 49.1438 92.3728 49.1438H91.5608V52.2798ZM98.2893 58.8038V47.4638H103.385V49.1718H100.795V51.9858H102.769V53.7218H100.795V57.1098H103.413V58.8038H98.2893ZM104.845 58.8038L106.987 47.4638H109.843L111.957 58.8038H109.647L109.269 56.4098H107.603L107.211 58.8038H104.845ZM107.827 54.9118H109.031L108.429 50.4878L107.827 54.9118ZM113.942 58.8038V47.4638H116.448V57.1098H119.052V58.8038H113.942ZM121.218 58.8038V49.3258H119.51V47.4638H125.432V49.3258H123.738V58.8038H121.218ZM128.698 58.8038V54.1698L126.542 47.4638H128.908L129.986 51.0478L130.952 47.4638H133.22L131.106 54.1698V58.8038H128.698Z" fill="white"/>
<defs>
<linearGradient id="paint0_linear_2455_3141" x1="67.8942" y1="4.54122" x2="64.4773" y2="36.1682" gradientUnits="userSpaceOnUse">
<stop stop-color="#31333A"/>
</linearGradient>
</defs>
</svg>
