<svg width="343" height="116" viewBox="0 0 343 116" fill="none" xmlns="http://www.w3.org/2000/svg">
<mask id="mask0_2494_651" style="mask-type:luminance" maskUnits="userSpaceOnUse" x="146" y="8" width="47" height="44">
<path d="M146.094 8.78816H192.19V51.7144H146.094V8.78816Z" fill="white"/>
</mask>
<g mask="url(#mask0_2494_651)">
<mask id="mask1_2494_651" style="mask-type:luminance" maskUnits="userSpaceOnUse" x="146" y="8" width="46" height="44">
<path d="M178.011 13.7521C177.975 13.8555 177.964 17.7575 177.966 22.7763L171.005 26.6767V17.6767L178.011 13.7521ZM166.097 22.7812V20.827L163.35 21.5624L161.032 22.188L160.628 22.2979L155.959 23.5554V25.0878L160.834 23.9741L166.097 22.7812ZM166.097 26.7413V24.8388L163.31 25.3286L160.963 25.7456L160.556 25.8184L155.959 26.6346V28.2801L160.83 27.5382L166.097 26.7413ZM166.097 18.8211V16.8167L163.391 17.7963L161.102 18.6303L160.703 18.7774L155.959 20.5037V21.8954L160.838 20.4116L166.097 18.8211ZM160.826 31.0991L166.097 30.7015V28.8491L163.269 29.0948L160.893 29.3033L160.484 29.3388L155.96 29.7365V31.4498L156.012 31.4676L160.826 31.0991ZM186.975 17.7284V37.744L191.833 39.9342V23.6217L186.975 17.7284ZM166.097 14.8593V12.8065L163.431 14.0317L161.171 15.0727L160.775 15.2569L155.959 17.4746V18.7047L160.842 16.8491L166.097 14.8593ZM166.093 10.8959L166.097 8.79465L163.473 10.2656L160.848 11.7365L155.959 14.4762V15.5139L160.847 13.2866L166.093 10.8959ZM173.344 39.4849L168.568 40.5339L164.449 41.4391L157.164 43.0393L150.245 44.5587L149.734 44.6718L146.244 45.438V46.1767L160.758 44.1109L162.831 43.8151L168.568 42.9989L173.346 42.3184L173.367 42.3216V39.48L173.344 39.4849ZM173.344 34.2171L170.947 35.0527L170.181 35.3211L168.568 35.8836L168.132 36.0355L154.03 40.9542L149.732 42.4525L146.244 43.6713V44.4423L149.732 43.5404L153.196 42.6465L154.615 42.2796L165.854 39.3782L168.566 38.6767L173.344 37.4434L173.365 37.4482V34.2252L173.344 34.2171ZM168.568 45.0856L146.244 46.9154V47.6201L168.568 47.2273L173.344 47.1433L173.365 47.1449V44.6928L173.344 44.6945L168.568 45.0856ZM160.375 32.8593L166.032 34.6664L166.046 34.6616V34.091L166.048 33.4752V32.8593H160.375ZM168.568 48.9439L146.244 48.2747V48.9423L173.344 51.3685H173.365V49.0878H173.344L168.568 48.9439Z" fill="white"/>
</mask>
<g mask="url(#mask1_2494_651)">
<path d="M146.244 8.79465V51.3685H191.833V8.79465H146.244Z" fill="url(#paint0_linear_2494_651)"/>
</g>
</g>
<mask id="mask2_2494_651" style="mask-type:luminance" maskUnits="userSpaceOnUse" x="149" y="8" width="47" height="44">
<path d="M149.568 8.78816H195.748V51.7144H149.568V8.78816Z" fill="white"/>
</mask>
<g mask="url(#mask2_2494_651)">
<path d="M181.404 20.8496L178.011 22.7505V13.7521L181.404 17.8674V20.8496ZM166.097 10.8992L170.947 15.3087V14.6767L166.097 8.79465V10.8992ZM166.097 14.8593L170.947 18.535V17.7074L166.097 12.8065V14.8593ZM166.097 18.8211L170.947 21.7613V20.7381L166.097 16.8167V18.8211ZM166.097 22.7812L170.947 24.9859V23.7688L166.097 20.827V22.7812ZM166.097 26.7413L169.207 27.6837L170.854 26.7607L166.097 24.8388V26.7413ZM166.097 30.7015L168.568 31.0765V29.3485L166.097 28.8491V30.7015ZM166.048 34.66L168.568 33.6029V32.8593H166.048V34.66ZM149.732 41.5053L154.03 39.7031V30.834L149.732 34.0102V41.5053ZM191.833 41.3033L186.975 39.4412L186.919 39.4202L173.366 34.2252V37.4482L186.922 41.0705L186.975 41.0835L191.833 42.3814L195.662 43.4046V42.771L191.833 41.3033ZM188.201 43.0587L186.975 42.7629L186.925 42.75L173.366 39.48V42.3216L173.383 42.3184L186.929 44.3114L191.833 45.0323L195.662 45.5964V44.8577L191.833 43.9348L188.201 43.0587ZM186.932 46.0458L173.366 44.6912V47.1433H173.383L186.933 47.4326L191.833 47.5377L195.662 47.6185V46.9154L191.833 46.5339L186.932 46.0458ZM186.937 48.8324L173.408 49.0894L173.366 49.0878V51.3669L191.833 49.4951L195.662 49.1072V48.6675L191.833 48.7403L186.937 48.8324Z" fill="#8E8F93"/>
</g>
<mask id="mask3_2494_651" style="mask-type:luminance" maskUnits="userSpaceOnUse" x="137" y="1" width="25" height="60">
<path d="M137.568 1.64537H161.135V60.404H137.568V1.64537Z" fill="white"/>
</mask>
<g mask="url(#mask3_2494_651)">
<path d="M160.61 58.6713C168.884 52.8474 176.922 47.1659 180.604 38.5005C184.304 29.7979 183.658 18.0015 182.98 5.94979L183.785 6.63998C180.654 6.9374 177.478 7.23804 174.593 7.23804C173.133 7.23804 171.735 7.16207 170.442 6.96487C166.572 6.37489 163.76 4.72457 161.062 3.1486L161.718 3.19224L161.673 3.21164C157.206 5.08017 152.613 7.00367 148.745 7.54354C147.894 7.66315 147.077 7.71649 146.29 7.71649C143.457 7.71649 141.003 7.03438 138.651 6.38298L139.584 5.69763L139.582 5.74289C139.165 18.8792 138.777 31.7585 142.396 40.5015C145.988 49.1783 153.572 53.8447 161.416 58.6454L160.61 58.6713ZM161.457 59.8755C161.216 60.0436 160.899 60.0549 160.648 59.9013C152.874 55.1443 144.84 50.2532 141.037 41.064C137.269 31.9606 137.699 18.7046 138.11 5.69763L138.111 5.65076C138.119 5.42446 138.229 5.21433 138.41 5.08179C138.593 4.94763 138.826 4.90399 139.044 4.96379C141.413 5.62004 143.685 6.24397 146.29 6.24397C147.011 6.24397 147.759 6.19548 148.542 6.08718C152.179 5.57802 156.577 3.74666 161.104 1.85226L161.151 1.83448C161.363 1.74396 161.607 1.76013 161.806 1.87812C164.513 3.45894 167.104 4.96703 170.664 5.50851C171.861 5.69117 173.182 5.76552 174.593 5.76552C177.394 5.76552 180.499 5.47295 183.646 5.17554C183.845 5.15614 184.044 5.21918 184.196 5.35011C184.348 5.47942 184.44 5.66692 184.451 5.86735C185.12 17.7995 185.822 29.9902 181.96 39.0759C178.083 48.1971 169.65 54.1082 161.457 59.8755Z" fill="#8E8F93"/>
</g>
<mask id="mask4_2494_651" style="mask-type:luminance" maskUnits="userSpaceOnUse" x="135" y="0" width="27" height="63">
<path d="M135.5 0H161.136V62.0593H135.5V0Z" fill="white"/>
</mask>
<g mask="url(#mask4_2494_651)">
<path d="M136.76 2.10938L136.77 2.11262C140.203 3.41219 143.557 4.67458 147.624 4.34969C147.831 4.33352 148.039 4.31251 148.249 4.28665C152.213 3.82436 156.816 1.98169 161.486 0.109922C161.594 0.0662802 161.719 0.0759782 161.819 0.135784C164.615 1.78934 167.348 3.40249 171.258 3.90518C174.617 4.33514 178.86 3.94883 183.281 3.43158C184.038 3.3443 184.796 3.25217 185.555 3.16003C185.66 3.1471 185.765 3.17781 185.845 3.2457C185.926 3.31359 185.974 3.41057 185.979 3.51564L185.982 3.55928C186.698 17.3405 187.424 31.2527 183.334 41.0205C179.227 50.8319 170.289 56.423 161.484 61.9446C161.368 62.0173 161.222 62.0205 161.103 61.9559L161.08 61.9429H161.079C152.146 57.0712 143.066 52.1267 138.9 42.1326C134.749 32.1757 135.507 17.2403 136.249 2.44559C136.254 2.32436 136.319 2.21283 136.419 2.14656C136.521 2.08029 136.647 2.06736 136.76 2.10938ZM136.493 2.81736L137.004 2.48277C136.259 17.3502 135.53 32.0787 139.598 41.8416C143.646 51.5512 152.465 56.3826 161.442 61.2786L161.465 61.2915L161.082 61.3029C169.928 55.7554 178.637 50.2808 182.636 40.7279C186.645 31.1541 185.945 17.4456 185.226 3.59807L185.224 3.55443L185.647 3.91165C184.888 4.00378 184.125 4.09592 183.368 4.1832C178.959 4.69883 174.627 5.09969 171.163 4.65518C167.082 4.13148 164.227 2.43913 161.434 0.787185L161.767 0.813048C157.128 2.67189 152.423 4.56143 148.338 5.03988C148.118 5.06413 147.9 5.08676 147.684 5.10454C143.424 5.44559 139.922 4.11531 136.501 2.82059L136.492 2.81736H136.493Z" fill="#8E8F93"/>
</g>
<mask id="mask5_2494_651" style="mask-type:luminance" maskUnits="userSpaceOnUse" x="181" y="1" width="25" height="60">
<path d="M181.846 1.64537H205.844V60.404H181.846V1.64537Z" fill="white"/>
</mask>
<g mask="url(#mask5_2494_651)">
<path d="M181.416 58.6713C189.69 52.8474 197.728 47.1659 201.412 38.5005C205.11 29.7979 204.465 18.0015 203.788 5.94979L204.591 6.63998C201.46 6.9374 198.284 7.23804 195.401 7.23804C193.941 7.23804 192.541 7.16207 191.248 6.96487C187.379 6.37489 184.566 4.72457 181.87 3.1486L182.525 3.19224L182.479 3.21164C178.013 5.08017 173.42 7.00367 169.553 7.54354C168.701 7.66315 167.885 7.71649 167.098 7.71649C164.263 7.71649 161.811 7.03438 159.459 6.38298L160.39 5.69763L160.388 5.74289C159.973 18.8792 159.585 31.7585 163.202 40.5015C166.794 49.1783 174.38 53.8447 182.224 58.6454L181.416 58.6713ZM182.263 59.8755C182.024 60.0436 181.705 60.0549 181.456 59.9013C173.681 55.1443 165.646 50.2532 161.843 41.064C158.075 31.9606 158.505 18.7046 158.917 5.69763L158.919 5.65076C158.925 5.42446 159.035 5.21433 159.218 5.08179C159.399 4.94763 159.633 4.90399 159.85 4.96379C162.221 5.62004 164.491 6.24397 167.098 6.24397C167.819 6.24397 168.567 6.19548 169.349 6.08718C172.986 5.57802 177.383 3.74666 181.912 1.85226L181.957 1.83448C182.171 1.74396 182.413 1.76013 182.612 1.87812C185.319 3.45894 187.912 4.96703 191.47 5.50851C192.667 5.69117 193.988 5.76552 195.401 5.76552C198.202 5.76552 201.305 5.47295 204.452 5.17554C204.653 5.15614 204.85 5.21918 205.002 5.35011C205.154 5.47942 205.246 5.66692 205.257 5.86735C205.928 17.7995 206.628 29.9902 202.767 39.0759C198.889 48.1971 190.458 54.1082 182.263 59.8755Z" fill="#8E8F93"/>
</g>
<mask id="mask6_2494_651" style="mask-type:luminance" maskUnits="userSpaceOnUse" x="181" y="0" width="27" height="63">
<path d="M181.846 0H207.499V62.0593H181.846V0Z" fill="white"/>
</mask>
<g mask="url(#mask6_2494_651)">
<path d="M157.568 2.10938L157.576 2.11262C161.011 3.41219 164.363 4.67458 168.43 4.34969C168.637 4.33352 168.845 4.31251 169.057 4.28665C173.02 3.82436 177.622 1.98169 182.292 0.109922C182.402 0.0662802 182.525 0.0759782 182.627 0.135784C185.421 1.78934 188.156 3.40249 192.066 3.90518C195.425 4.33514 199.666 3.94883 204.087 3.43158C204.844 3.3443 205.602 3.25217 206.363 3.16003C206.467 3.1471 206.572 3.17781 206.652 3.2457C206.732 3.31359 206.78 3.41057 206.787 3.51564L206.788 3.55928C207.504 17.3405 208.232 31.2527 204.142 41.0205C200.035 50.8319 191.095 56.423 182.292 61.9446C182.176 62.0173 182.028 62.0205 181.909 61.9559L181.886 61.9429C172.952 57.0712 163.872 52.1267 159.708 42.1326C155.557 32.1757 156.313 17.2403 157.055 2.44559C157.062 2.32436 157.125 2.21283 157.227 2.14656C157.327 2.08029 157.455 2.06736 157.568 2.10938ZM157.299 2.81736L157.812 2.48277C157.067 17.3502 156.338 32.0787 160.406 41.8416C164.452 51.5512 173.273 56.3826 182.248 61.2786L182.271 61.2915L181.889 61.3029C190.734 55.7554 199.445 50.2808 203.444 40.7279C207.451 31.1541 206.753 17.4456 206.033 3.59807L206.03 3.55443L206.454 3.91165C205.696 4.00378 204.933 4.09592 204.176 4.1832C199.767 4.69883 195.435 5.09969 191.969 4.65518C187.888 4.13148 185.033 2.43913 182.24 0.787185L182.575 0.813048C177.936 2.67189 173.229 4.56143 169.144 5.03988C168.924 5.06413 168.706 5.08676 168.491 5.10454C164.232 5.44559 160.728 4.11531 157.308 2.82059L157.299 2.81736Z" fill="#8E8F93"/>
</g>
<path d="M2.16 105.059V75.8993H9.756C11.004 75.8993 12.18 75.9953 13.284 76.1873C14.412 76.3793 15.408 76.7513 16.272 77.3033C17.136 77.8313 17.808 78.5993 18.288 79.6073C18.792 80.5913 19.044 81.8993 19.044 83.5313C19.044 84.7073 18.864 85.7033 18.504 86.5193C18.168 87.3113 17.676 87.9473 17.028 88.4273C16.404 88.9073 15.648 89.2313 14.76 89.3993C15.888 89.5433 16.836 89.9153 17.604 90.5153C18.372 91.0913 18.948 91.8713 19.332 92.8553C19.74 93.8393 19.944 95.0273 19.944 96.4193C19.944 97.9313 19.74 99.2393 19.332 100.343C18.948 101.423 18.384 102.311 17.64 103.007C16.896 103.703 15.972 104.219 14.868 104.555C13.788 104.891 12.54 105.059 11.124 105.059H2.16ZM8.604 100.559H9.972C11.388 100.559 12.36 100.199 12.888 99.4793C13.44 98.7593 13.716 97.7033 13.716 96.3113C13.716 95.2073 13.596 94.3313 13.356 93.6833C13.116 93.0353 12.72 92.5673 12.168 92.2793C11.616 91.9673 10.872 91.8113 9.936 91.8113H8.604V100.559ZM8.604 87.5633H9.864C10.848 87.5633 11.592 87.4193 12.096 87.1313C12.6 86.8193 12.936 86.3753 13.104 85.7993C13.296 85.2233 13.392 84.5273 13.392 83.7113C13.392 82.9433 13.248 82.3073 12.96 81.8033C12.696 81.2753 12.288 80.8793 11.736 80.6153C11.208 80.3513 10.536 80.2193 9.72 80.2193H8.604V87.5633ZM24.0097 105.059L29.5178 75.8993H36.8618L42.2978 105.059H36.3578L35.3858 98.9033H31.1018L30.0938 105.059H24.0097ZM31.6778 95.0513H34.7738L33.2258 83.6753L31.6778 95.0513ZM48.483 105.059V80.6873H44.091V75.8993H59.319V80.6873H54.963V105.059H48.483ZM72.4702 105.491C70.2382 105.491 68.4862 105.131 67.2142 104.411C65.9662 103.667 65.0902 102.599 64.5862 101.207C64.0822 99.7913 63.8302 98.0633 63.8302 96.0233V75.8993H70.2022V96.9953C70.2022 97.5953 70.2502 98.1953 70.3463 98.7953C70.4422 99.3953 70.6462 99.8873 70.9582 100.271C71.2942 100.655 71.7982 100.847 72.4702 100.847C73.1662 100.847 73.6703 100.655 73.9823 100.271C74.2943 99.8873 74.4863 99.3953 74.5583 98.7953C74.6543 98.1953 74.7022 97.5953 74.7022 96.9953V75.8993H81.1103V96.0233C81.1103 98.0633 80.8463 99.7913 80.3183 101.207C79.8143 102.599 78.9383 103.667 77.6902 104.411C76.4423 105.131 74.7023 105.491 72.4702 105.491ZM87.2623 105.059L87.7663 75.8993H94.6783L97.8823 92.8553L101.338 75.8993H107.998L108.502 105.059H103.93L103.39 85.6553L100.006 105.059H95.9383L92.3383 85.5113L91.9063 105.059H87.2623ZM114.914 105.059V75.8993H121.358V105.059H114.914ZM146.977 105.491C145.153 105.491 143.629 105.167 142.405 104.519C141.181 103.871 140.257 102.875 139.633 101.531C139.009 100.163 138.661 98.3993 138.589 96.2393L144.097 95.4113C144.121 96.6593 144.229 97.6673 144.421 98.4353C144.637 99.2033 144.925 99.7553 145.285 100.091C145.669 100.427 146.125 100.595 146.653 100.595C147.325 100.595 147.757 100.367 147.949 99.9113C148.165 99.4553 148.273 98.9753 148.273 98.4713C148.273 97.2713 147.985 96.2633 147.409 95.4473C146.833 94.6073 146.053 93.7673 145.069 92.9273L142.549 90.7313C141.445 89.7953 140.509 88.7393 139.741 87.5633C138.997 86.3633 138.625 84.8873 138.625 83.1353C138.625 80.6633 139.357 78.7793 140.821 77.4833C142.285 76.1633 144.277 75.5033 146.797 75.5033C148.357 75.5033 149.605 75.7673 150.541 76.2953C151.501 76.8233 152.221 77.5193 152.701 78.3833C153.205 79.2233 153.541 80.1233 153.709 81.0833C153.901 82.0193 154.009 82.9193 154.033 83.7833L148.489 84.4673C148.465 83.6033 148.405 82.8593 148.309 82.2353C148.237 81.5873 148.069 81.0953 147.805 80.7593C147.541 80.3993 147.133 80.2193 146.581 80.2193C145.981 80.2193 145.537 80.4713 145.249 80.9753C144.985 81.4793 144.853 81.9833 144.853 82.4873C144.853 83.5673 145.105 84.4553 145.609 85.1513C146.137 85.8233 146.821 86.5313 147.661 87.2753L150.073 89.3993C151.345 90.4793 152.413 91.7033 153.277 93.0713C154.165 94.4393 154.609 96.1313 154.609 98.1473C154.609 99.5153 154.297 100.763 153.673 101.891C153.049 102.995 152.161 103.871 151.009 104.519C149.881 105.167 148.537 105.491 146.977 105.491ZM158.204 105.059L163.712 75.8993H171.056L176.492 105.059H170.552L169.58 98.9033H165.296L164.288 105.059H158.204ZM165.872 95.0513H168.968L167.42 83.6753L165.872 95.0513ZM181.596 105.059V75.8993H194.196V80.2553H188.04V87.5993H193.404V92.0993H188.04V105.059H181.596ZM199.365 105.059V75.8993H212.469V80.2913H205.809V87.5273H210.885V91.9913H205.809V100.703H212.541V105.059H199.365ZM228.998 105.059V75.8993H237.026C238.994 75.8993 240.698 76.1153 242.138 76.5473C243.578 76.9793 244.694 77.7593 245.486 78.8873C246.302 79.9913 246.71 81.5633 246.71 83.6033C246.71 84.8033 246.614 85.8713 246.422 86.8073C246.23 87.7433 245.87 88.5593 245.342 89.2553C244.838 89.9273 244.106 90.4913 243.146 90.9473L247.142 105.059H240.482L237.278 91.9913H235.442V105.059H228.998ZM235.442 88.2833H237.242C238.154 88.2833 238.862 88.1273 239.366 87.8153C239.87 87.4793 240.218 87.0113 240.41 86.4113C240.626 85.7873 240.734 85.0433 240.734 84.1793C240.734 82.9313 240.506 81.9593 240.05 81.2633C239.594 80.5673 238.754 80.2193 237.53 80.2193H235.442V88.2833ZM252.744 105.059V75.8993H265.848V80.2913H259.188V87.5273H264.264V91.9913H259.188V100.703H265.92V105.059H252.744ZM269.601 105.059L275.109 75.8993H282.453L287.889 105.059H281.949L280.977 98.9033H276.693L275.685 105.059H269.601ZM277.269 95.0513H280.365L278.817 83.6753L277.269 95.0513ZM292.994 105.059V75.8993H299.438V100.703H306.134V105.059H292.994ZM311.703 105.059V80.6873H307.311V75.8993H322.539V80.6873H318.183V105.059H311.703ZM330.939 105.059V93.1433L325.395 75.8993H331.479L334.251 85.1153L336.735 75.8993H342.567L337.131 93.1433V105.059H330.939Z" fill="white"/>
<defs>
<linearGradient id="paint0_linear_2494_651" x1="172.826" y1="6.74166" x2="167.754" y2="53.6931" gradientUnits="userSpaceOnUse">
<stop stop-color="#31333A"/>
</linearGradient>
</defs>
</svg>
